<?xml version="1.0" standalone="no"?>
<!DOCTYPE svg PUBLIC "-//W3C//DTD SVG 20010904//EN"
 "http://www.w3.org/TR/2001/REC-SVG-20010904/DTD/svg10.dtd">
<svg version="1.0" xmlns="http://www.w3.org/2000/svg"
 width="225.000000pt" height="225.000000pt" viewBox="0 0 225.000000 225.000000"
 preserveAspectRatio="xMidYMid meet">

<g transform="translate(0.000000,225.000000) scale(0.100000,-0.100000)"
fill="#000000" stroke="none">
<path d="M170 1506 l0 -116 253 0 c261 0 302 -5 358 -43 61 -41 73 -75 80
-234 6 -130 9 -147 37 -208 37 -78 122 -171 190 -208 87 -47 155 -57 404 -57
l227 0 3 -120 3 -120 175 175 176 175 -178 177 -178 178 0 -123 0 -123 -237 3
c-232 3 -239 4 -283 28 -24 14 -58 44 -74 68 -29 41 -31 49 -37 180 -7 160
-26 225 -89 308 -47 63 -120 114 -205 145 -55 21 -82 23 -342 27 l-283 4 0
-116z"/>
</g>
</svg>
